<svg version="1.1" id="Layer_1" xmlns="http://www.w3.org/2000/svg" xmlns:xlink="http://www.w3.org/1999/xlink" x="0px" y="0px"
	 width="100%" viewBox="0 0 238 223" enable-background="new 0 0 238 223" xml:space="preserve">
<path fill="#FEFEFE" opacity="1.000000" stroke="none" 
	d="
M135.000000,1.000002 
	C169.631775,1.000000 204.263535,1.000000 238.947662,1.000000 
	C238.947662,75.223579 238.947662,149.447205 238.947662,224.000000 
	C203.313110,224.000000 167.625214,224.000000 131.635834,223.659225 
	C140.929077,221.475372 149.114029,217.022690 156.010834,210.113297 
	C173.543610,192.548477 191.106308,175.013535 208.639969,157.449570 
	C209.487762,156.600296 210.172363,155.588089 211.496689,153.957764 
	C183.617157,166.941376 150.922882,155.056503 141.885193,120.621033 
	C141.193115,122.453613 140.612961,123.733498 140.220871,125.068611 
	C137.143524,135.547760 130.961868,143.799744 122.054955,149.968002 
	C109.432861,158.709152 95.595116,159.960144 80.717270,156.002502 
	C68.887390,151.733871 60.558418,143.869644 54.091953,133.364075 
	C52.280537,125.686378 50.537643,118.358025 48.879768,110.601768 
	C49.566971,106.113060 50.169151,102.052246 50.911476,97.644165 
	C51.296387,96.514931 51.479988,95.707352 51.795025,94.954796 
	C57.484119,81.364632 67.480949,72.246201 81.381660,66.856201 
	C82.816940,66.530266 83.908516,66.181877 85.415253,65.865540 
	C91.532654,65.652985 97.234901,65.408379 103.236115,65.384300 
	C107.657593,66.840485 111.780106,68.076141 116.105309,69.571808 
	C118.497948,71.012215 120.687889,72.192604 123.053329,73.633713 
	C124.762070,75.055344 126.295326,76.216248 127.969849,77.662277 
	C129.710114,79.644234 131.309097,81.341057 133.002808,83.366432 
	C134.648773,86.163757 136.200027,88.632538 137.844788,91.470901 
	C139.228867,95.578560 140.519470,99.316628 141.921097,103.376312 
	C144.768356,97.225113 147.368958,91.606819 150.237396,85.791595 
	C155.828140,78.202126 162.908295,72.987022 171.402161,69.018333 
	C177.525208,67.919243 183.260391,66.844917 189.420685,65.848770 
	C196.532074,67.254478 203.218353,68.582016 210.684509,70.064392 
	C206.967239,64.433617 201.814423,60.310135 196.933533,55.545151 
	C195.225418,53.787624 193.645966,52.325836 191.910492,50.565552 
	C189.852249,48.462181 187.950012,46.657303 185.926025,44.557583 
	C184.246521,42.821053 182.688751,41.379368 180.994003,39.629425 
	C179.197052,37.881870 177.537079,36.442574 175.837067,34.662636 
	C173.674057,32.294571 171.551071,30.267147 169.285034,27.956877 
	C166.905289,25.528702 164.668625,23.383377 162.289764,20.958733 
	C160.142242,18.765163 158.136902,16.850912 155.994568,14.629646 
	C153.407074,12.481007 150.956543,10.639380 148.274963,8.503107 
	C145.447571,6.935674 142.851257,5.662887 139.990906,4.195461 
	C138.151260,3.000550 136.575623,2.000277 135.000000,1.000002 
M125.135620,124.665825 
	C131.961884,117.125565 132.476929,108.485619 126.496880,101.830482 
	C120.972900,95.682884 111.842781,94.584938 105.232132,99.273293 
	C97.944138,104.442039 96.081673,114.000160 100.927765,121.363281 
	C106.135376,129.275681 115.718254,130.791183 125.135620,124.665825 
M214.774033,127.565529 
	C223.194885,123.096230 226.676147,115.863541 224.214981,107.951050 
	C221.812927,100.228683 214.860321,95.574013 207.089188,96.485542 
	C197.692368,97.587776 191.419083,105.917999 192.917175,115.304436 
	C194.465744,125.007210 203.337067,130.276276 214.774033,127.565529 
z"/>
<path fill="#C90E83" opacity="1.000000" stroke="none" 
	d="
M81.035034,156.185135 
	C95.595116,159.960144 109.432861,158.709152 122.054955,149.968002 
	C130.961868,143.799744 137.143524,135.547760 140.220871,125.068611 
	C140.612961,123.733498 141.193115,122.453613 141.885193,120.621033 
	C150.922882,155.056503 183.617157,166.941376 211.496689,153.957764 
	C210.172363,155.588089 209.487762,156.600296 208.639969,157.449570 
	C191.106308,175.013535 173.543610,192.548477 156.010834,210.113297 
	C149.114029,217.022690 140.929077,221.475372 131.167175,223.659225 
	C130.250000,224.000000 129.500000,224.000000 128.098099,223.707245 
	C124.297462,223.609650 121.148727,223.804825 118.000000,224.000000 
	C116.611107,224.000000 115.222221,224.000000 113.303963,223.648712 
	C101.618828,220.229340 92.444740,214.133057 84.983574,204.869720 
	C82.932297,201.337738 81.022423,198.139221 79.084351,194.538452 
	C78.351837,190.760086 77.647537,187.383957 76.961182,183.557648 
	C76.953476,180.409485 76.927826,177.711517 76.928436,174.580353 
	C77.300079,171.097275 77.645477,168.047409 78.264473,164.771881 
	C79.370384,161.759186 80.202713,158.972153 81.035034,156.185135 
z"/>
<path fill="#C90D82" opacity="1.000000" stroke="none" 
	d="
M81.037956,66.833740 
	C67.480949,72.246201 57.484119,81.364632 51.795025,94.954796 
	C51.479988,95.707352 51.296387,96.514931 50.573647,97.599686 
	C38.645481,90.022133 27.240683,82.074257 15.705641,74.320145 
	C13.476624,72.821747 10.738234,72.081100 7.989624,70.726151 
	C5.496288,64.974266 3.248144,59.487133 1.000000,54.000000 
	C1.000000,49.975456 1.000000,45.950912 1.343911,41.302830 
	C5.429516,21.905701 15.906930,8.968151 34.344593,2.866349 
	C35.327915,2.540927 36.119278,1.635449 37.000000,1.000000 
	C43.687645,1.000000 50.375290,1.000000 57.631546,1.359803 
	C68.920876,5.106508 78.142097,10.762340 85.173981,19.910904 
	C84.032959,22.442520 82.976906,24.665567 81.643333,27.117519 
	C80.197365,31.215696 79.028915,35.084972 77.586395,39.246948 
	C77.240318,42.023308 77.168327,44.506958 77.060013,47.417660 
	C77.364410,50.560612 77.705132,53.276516 78.036499,56.384953 
	C79.030754,60.129570 80.034355,63.481655 81.037956,66.833740 
z"/>
<path fill="#FEFCFE" opacity="1.000000" stroke="none" 
	d="
M1.000000,54.468658 
	C3.248144,59.487133 5.496288,64.974266 8.068521,71.045341 
	C10.800947,74.592125 12.993717,77.766403 15.655709,80.480453 
	C26.036846,91.064613 36.566628,101.502968 46.919281,112.309448 
	C43.523823,116.058022 40.250206,119.492699 36.668495,123.059731 
	C33.886124,125.786392 31.411850,128.380692 28.636950,131.100952 
	C26.533583,133.090805 24.730841,134.954697 22.623932,136.963196 
	C20.193243,139.397842 18.066719,141.687866 15.634418,144.106140 
	C14.046003,145.752258 12.763364,147.270142 11.225838,148.985657 
	C9.567564,151.423584 8.164178,153.663834 6.490004,156.108627 
	C5.425805,158.450928 4.632394,160.588684 3.585576,162.984207 
	C2.554780,165.161301 1.777390,167.080658 1.000000,169.000000 
	C1.000000,130.979111 1.000000,92.958214 1.000000,54.468658 
z"/>
<path fill="#8626BB" opacity="1.000000" stroke="none" 
	d="
M0.999999,186.000000 
	C1.000000,183.629440 1.000000,181.258896 1.372449,178.449066 
	C3.254795,178.620361 4.947750,178.970154 6.246316,179.881760 
	C19.495762,189.182846 32.774136,198.447983 45.841011,208.001404 
	C51.514820,212.149628 56.716557,216.943512 61.853989,221.640778 
	C59.716850,222.558273 57.858425,223.279129 56.000000,224.000000 
	C55.250000,224.000000 54.500000,224.000000 53.184685,223.724960 
	C50.614773,221.746475 48.716892,219.894485 46.587463,218.364807 
	C36.362198,211.019424 26.158560,203.638016 15.767151,196.532791 
	C11.634091,193.706757 7.036102,191.560699 2.467396,188.855316 
	C1.856677,187.737045 1.428337,186.868515 0.999999,186.000000 
z"/>
<path fill="#822BC1" opacity="1.000000" stroke="none" 
	d="
M2.649774,189.105072 
	C7.036102,191.560699 11.634091,193.706757 15.767151,196.532791 
	C26.158560,203.638016 36.362198,211.019424 46.587463,218.364807 
	C48.716892,219.894485 50.614773,221.746475 52.809685,223.724960 
	C48.310745,224.000000 43.621487,224.000000 38.310886,223.664856 
	C36.110390,222.844574 34.503906,222.433563 32.956326,221.862823 
	C17.300293,216.089188 6.750153,205.576828 2.649774,189.105072 
z"/>
<path fill="#8E23B4" opacity="1.000000" stroke="none" 
	d="
M1.000000,169.333328 
	C1.777390,167.080658 2.554780,165.161301 3.773634,163.286163 
	C6.607751,165.107086 8.966359,166.931915 11.398544,168.652725 
	C28.289463,180.603378 45.131096,192.625626 62.139011,204.407700 
	C66.816879,207.648224 72.006248,210.150360 76.801041,213.287354 
	C73.808556,215.192612 70.975945,216.801865 68.086929,218.038330 
	C67.289665,216.604416 66.758125,215.262741 65.773628,214.528061 
	C59.802624,210.072372 53.757187,205.714447 47.682220,201.400467 
	C36.471943,193.439758 25.323751,185.384674 13.937847,177.682053 
	C9.945535,174.981232 5.330616,173.200745 0.999999,171.000000 
	C1.000000,170.555557 1.000000,170.111099 1.000000,169.333328 
z"/>
<path fill="#8A23B7" opacity="1.000000" stroke="none" 
	d="
M0.999999,171.250000 
	C5.330616,173.200745 9.945535,174.981232 13.937847,177.682053 
	C25.323751,185.384674 36.471943,193.439758 47.682220,201.400467 
	C53.757187,205.714447 59.802624,210.072372 65.773628,214.528061 
	C66.758125,215.262741 67.289665,216.604416 67.954582,218.284454 
	C67.055809,219.309616 66.233002,219.715897 65.151016,220.137619 
	C64.612694,220.342758 64.333542,220.532440 63.753616,220.889923 
	C63.012794,221.186523 62.572750,221.315338 62.132706,221.444153 
	C56.716557,216.943512 51.514820,212.149628 45.841011,208.001404 
	C32.774136,198.447983 19.495762,189.182846 6.246316,179.881760 
	C4.947750,178.970154 3.254795,178.620361 1.372449,178.004898 
	C1.000000,177.250000 1.000000,176.500000 1.249973,175.191681 
	C1.333297,173.755569 1.166648,172.877792 0.999999,172.000000 
	C1.000000,172.000000 1.000000,171.500000 0.999999,171.250000 
z"/>
<path fill="#FEFBFD" opacity="1.000000" stroke="none" 
	d="
M36.531342,1.000000 
	C36.119278,1.635449 35.327915,2.540927 34.344593,2.866349 
	C15.906930,8.968151 5.429516,21.905701 1.343911,40.839645 
	C1.000000,27.743896 1.000000,14.487794 1.000000,1.000000 
	C12.686542,1.000000 24.374613,1.000000 36.531342,1.000000 
z"/>
<path fill="#8925B9" opacity="1.000000" stroke="none" 
	d="
M77.096329,46.990608 
	C77.168327,44.506958 77.240318,42.023308 77.958527,39.231937 
	C80.260902,38.174301 82.061882,37.640186 83.550896,36.641117 
	C98.642982,26.514893 113.718979,16.363409 128.693008,6.064200 
	C130.455795,4.851741 131.579849,2.710621 133.000000,1.000000 
	C133.444443,1.000000 133.888901,1.000000 134.666672,1.000002 
	C136.575623,2.000277 138.151260,3.000550 139.843262,4.554023 
	C139.661407,5.503619 139.441437,6.014010 139.053772,6.280049 
	C120.101486,19.286587 101.152054,32.297558 82.134789,45.208595 
	C80.709137,46.176483 78.787437,46.413719 77.096329,46.990608 
z"/>
<path fill="#FDFCFE" opacity="1.000000" stroke="none" 
	d="
M2.467395,188.855316 
	C6.750153,205.576828 17.300293,216.089188 32.956326,221.862823 
	C34.503906,222.433563 36.110390,222.844574 37.844772,223.664856 
	C25.739063,224.000000 13.478127,224.000000 1.000000,224.000000 
	C1.000000,211.646622 1.000000,199.291962 0.999999,186.468658 
	C1.428337,186.868515 1.856677,187.737045 2.467395,188.855316 
z"/>
<path fill="#8426BC" opacity="1.000000" stroke="none" 
	d="
M132.539368,1.000000 
	C131.579849,2.710621 130.455795,4.851741 128.693008,6.064200 
	C113.718979,16.363409 98.642982,26.514893 83.550896,36.641117 
	C82.061882,37.640186 80.260902,38.174301 78.232605,38.939232 
	C79.028915,35.084972 80.197365,31.215696 81.843170,27.382435 
	C83.232307,27.264124 84.319534,27.378094 85.028893,26.914223 
	C92.613083,21.954660 100.251884,17.064718 107.636742,11.819237 
	C112.300034,8.506888 116.559441,4.625921 121.000000,1.000001 
	C124.692909,1.000000 128.385818,1.000000 132.539368,1.000000 
z"/>
<path fill="#FDFAFD" opacity="1.000000" stroke="none" 
	d="
M61.853989,221.640778 
	C62.572750,221.315338 63.012794,221.186523 64.017975,220.899567 
	C64.858803,220.535004 65.134491,220.328583 65.410187,220.122162 
	C66.233002,219.715897 67.055809,219.309616 68.010971,218.657227 
	C70.975945,216.801865 73.808556,215.192612 77.109100,213.174896 
	C79.051605,211.177719 80.526184,209.589005 82.284210,207.891525 
	C83.420090,206.922897 84.272537,206.063049 85.124977,205.203201 
	C92.444740,214.133057 101.618828,220.229340 112.887299,223.648712 
	C94.312439,224.000000 75.624878,224.000000 56.468658,224.000000 
	C57.858425,223.279129 59.716850,222.558273 61.853989,221.640778 
z"/>
<path fill="#FCF9FC" opacity="1.000000" stroke="none" 
	d="
M85.258949,19.602335 
	C78.142097,10.762340 68.920876,5.106508 58.100079,1.359803 
	C75.687561,1.000000 93.375122,1.000000 111.404984,1.342825 
	C110.834572,1.990807 109.899963,2.242945 109.012505,2.609299 
	C99.773346,6.423346 92.003014,12.297084 85.258949,19.602335 
z"/>
<path fill="#822BC1" opacity="1.000000" stroke="none" 
	d="
M85.173981,19.910904 
	C92.003014,12.297084 99.773346,6.423346 109.012505,2.609299 
	C109.899963,2.242945 110.834572,1.990807 111.873642,1.342825 
	C114.700012,1.000000 117.400032,1.000000 120.550018,1.000001 
	C116.559441,4.625921 112.300034,8.506888 107.636742,11.819237 
	C100.251884,17.064718 92.613083,21.954660 85.028893,26.914223 
	C84.319534,27.378094 83.232307,27.264124 82.120689,27.153530 
	C82.976906,24.665567 84.032959,22.442520 85.173981,19.910904 
z"/>
<path fill="#C01D92" opacity="1.000000" stroke="none" 
	d="
M118.454109,224.000000 
	C121.148727,223.804825 124.297462,223.609650 127.723099,223.707245 
	C124.969406,224.000000 121.938812,224.000000 118.454109,224.000000 
z"/>
<path fill="#8626BB" opacity="1.000000" stroke="none" 
	d="
M0.999999,172.375000 
	C1.166648,172.877792 1.333297,173.755569 1.249973,174.816681 
	C1.000000,174.250000 1.000000,173.500000 0.999999,172.375000 
z"/>
<path fill="#9A1FAB" opacity="1.000000" stroke="none" 
	d="
M102.937149,65.163773 
	C97.234901,65.408379 91.532654,65.652985 85.421745,65.507187 
	C85.837074,63.989597 86.439514,62.549431 87.519981,61.784557 
	C96.448616,55.463940 105.421516,49.203320 114.466469,43.050140 
	C128.319061,33.626389 142.239761,24.302776 156.131561,14.936660 
	C158.136902,16.850912 160.142242,18.765163 162.102081,21.323391 
	C161.501572,22.570829 161.036682,23.305140 160.378342,23.758566 
	C145.113770,34.271843 129.763535,44.662415 114.588882,55.303474 
	C110.440216,58.212681 106.806946,61.856876 102.937149,65.163773 
z"/>
<path fill="#040404" opacity="1.000000" stroke="none" 
	d="
M124.837288,124.881561 
	C115.718254,130.791183 106.135376,129.275681 100.927765,121.363281 
	C96.081673,114.000160 97.944138,104.442039 105.232132,99.273293 
	C111.842781,94.584938 120.972900,95.682884 126.496880,101.830482 
	C132.476929,108.485619 131.961884,117.125565 124.837288,124.881561 
z"/>
<path fill="#050505" opacity="1.000000" stroke="none" 
	d="
M214.411636,127.710602 
	C203.337067,130.276276 194.465744,125.007210 192.917175,115.304436 
	C191.419083,105.917999 197.692368,97.587776 207.089188,96.485542 
	C214.860321,95.574013 221.812927,100.228683 224.214981,107.951050 
	C226.676147,115.863541 223.194885,123.096230 214.411636,127.710602 
z"/>
<path fill="#9321B1" opacity="1.000000" stroke="none" 
	d="
M155.994568,14.629646 
	C142.239761,24.302776 128.319061,33.626389 114.466469,43.050140 
	C105.421516,49.203320 96.448616,55.463940 87.519981,61.784557 
	C86.439514,62.549431 85.837074,63.989597 85.006592,65.475136 
	C83.908516,66.181877 82.816940,66.530266 81.381660,66.856201 
	C80.034355,63.481655 79.030754,60.129570 78.386932,56.350182 
	C80.187149,55.130802 81.704781,54.451889 83.056465,53.529736 
	C104.885452,38.637348 126.693344,23.714045 148.506027,8.797752 
	C150.956543,10.639380 153.407074,12.481007 155.994568,14.629646 
z"/>
<path fill="#A11CA5" opacity="1.000000" stroke="none" 
	d="
M103.236115,65.384308 
	C106.806946,61.856876 110.440216,58.212681 114.588882,55.303474 
	C129.763535,44.662415 145.113770,34.271843 160.378342,23.758566 
	C161.036682,23.305140 161.501572,22.570829 162.244263,21.602707 
	C164.668625,23.383377 166.905289,25.528702 169.098877,28.322697 
	C168.424744,29.731228 167.927307,30.687113 167.142807,31.221788 
	C153.658157,40.412128 139.968140,49.314400 126.729057,58.843731 
	C122.743500,61.712482 116.419487,62.684933 115.902618,69.311790 
	C111.780106,68.076141 107.657593,66.840485 103.236115,65.384308 
z"/>
<path fill="#8D22B5" opacity="1.000000" stroke="none" 
	d="
M148.274963,8.503107 
	C126.693344,23.714045 104.885452,38.637348 83.056465,53.529736 
	C81.704781,54.451889 80.187149,55.130802 78.396286,55.957649 
	C77.705132,53.276516 77.364410,50.560612 77.060013,47.417656 
	C78.787437,46.413719 80.709137,46.176483 82.134789,45.208595 
	C101.152054,32.297558 120.101486,19.286587 139.053772,6.280049 
	C139.441437,6.014010 139.661407,5.503619 140.107269,4.748661 
	C142.851257,5.662887 145.447571,6.935674 148.274963,8.503107 
z"/>
<path fill="#B71593" opacity="1.000000" stroke="none" 
	d="
M171.014343,69.043106 
	C162.908295,72.987022 155.828140,78.202126 149.851624,85.794762 
	C145.382401,87.697006 141.566849,89.399155 137.751282,91.101303 
	C136.200027,88.632538 134.648773,86.163757 133.315674,83.219513 
	C149.723938,71.670517 165.940323,60.634926 182.063614,49.464954 
	C183.680695,48.344654 184.733231,46.409443 186.047760,44.852432 
	C187.950012,46.657303 189.852249,48.462181 191.761383,50.881283 
	C185.677490,55.906097 179.519028,60.228348 173.552185,64.800690 
	C172.336472,65.732300 171.841537,67.604500 171.014343,69.043106 
z"/>
<path fill="#B11697" opacity="1.000000" stroke="none" 
	d="
M185.926025,44.557587 
	C184.733231,46.409443 183.680695,48.344654 182.063614,49.464954 
	C165.940323,60.634926 149.723938,71.670517 133.220947,82.890961 
	C131.309097,81.341057 129.710114,79.644234 128.120468,77.325890 
	C128.586090,76.231163 128.977112,75.662834 129.508102,75.298553 
	C146.707413,63.499470 163.920197,51.720047 181.130981,39.937683 
	C182.688751,41.379368 184.246521,42.821053 185.926025,44.557587 
z"/>
<path fill="#B0199A" opacity="1.000000" stroke="none" 
	d="
M28.937572,130.975006 
	C31.411850,128.380692 33.886124,125.786392 36.720917,123.403290 
	C41.803947,127.109886 46.486252,130.662842 51.300667,134.026703 
	C51.892185,134.440018 53.189980,133.842499 54.160477,133.713409 
	C60.558418,143.869644 68.887390,151.733871 80.717270,156.002502 
	C80.202713,158.972153 79.370384,161.759186 77.916634,164.736923 
	C61.175991,153.610107 45.056782,142.292557 28.937572,130.975006 
z"/>
<path fill="#A71AA0" opacity="1.000000" stroke="none" 
	d="
M116.105309,69.571808 
	C116.419487,62.684933 122.743500,61.712482 126.729057,58.843731 
	C139.968140,49.314400 153.658157,40.412128 167.142807,31.221788 
	C167.927307,30.687113 168.424744,29.731228 169.241943,28.605545 
	C171.551071,30.267147 173.674057,32.294571 175.496704,34.703266 
	C160.227325,45.193642 145.184540,55.196625 130.352432,65.502846 
	C127.442848,67.524590 125.348289,70.719276 122.877838,73.372986 
	C120.687889,72.192604 118.497948,71.012215 116.105309,69.571808 
z"/>
<path fill="#AB189C" opacity="1.000000" stroke="none" 
	d="
M123.053329,73.633713 
	C125.348289,70.719276 127.442848,67.524590 130.352432,65.502846 
	C145.184540,55.196625 160.227325,45.193642 175.536758,35.043907 
	C177.537079,36.442574 179.197052,37.881870 180.994003,39.629425 
	C163.920197,51.720047 146.707413,63.499470 129.508102,75.298553 
	C128.977112,75.662834 128.586090,76.231163 127.979187,77.040756 
	C126.295326,76.216248 124.762070,75.055344 123.053329,73.633713 
z"/>
<path fill="#C31188" opacity="1.000000" stroke="none" 
	d="
M47.041126,111.995552 
	C36.566628,101.502968 26.036846,91.064613 15.655709,80.480453 
	C12.993717,77.766403 10.800947,74.592125 8.313712,71.310097 
	C10.738234,72.081100 13.476624,72.821747 15.705641,74.320145 
	C27.240683,82.074257 38.645481,90.022133 50.433510,97.946945 
	C50.169151,102.052246 49.566971,106.113060 48.655876,110.715340 
	C47.911686,111.503059 47.476406,111.749306 47.041126,111.995552 
z"/>
<path fill="#BB1590" opacity="1.000000" stroke="none" 
	d="
M171.402176,69.018341 
	C171.841537,67.604500 172.336472,65.732300 173.552185,64.800690 
	C179.519028,60.228348 185.677490,55.906097 191.917389,51.179779 
	C193.645966,52.325836 195.225418,53.787624 196.886383,55.904747 
	C195.229019,58.229980 193.387421,59.808205 191.786636,61.601387 
	C190.683624,62.836987 189.914139,64.370316 188.995590,65.770584 
	C183.260391,66.844917 177.525208,67.919243 171.402176,69.018341 
z"/>
<path fill="#B71593" opacity="1.000000" stroke="none" 
	d="
M46.919281,112.309448 
	C47.476406,111.749306 47.911686,111.503059 48.570854,111.143234 
	C50.537643,118.358025 52.280537,125.686378 54.091953,133.364075 
	C53.189980,133.842499 51.892185,134.440018 51.300667,134.026703 
	C46.486252,130.662842 41.803947,127.109886 37.029011,123.270935 
	C40.250206,119.492699 43.523823,116.058022 46.919281,112.309448 
z"/>
<path fill="#C3178C" opacity="1.000000" stroke="none" 
	d="
M189.420685,65.848763 
	C189.914139,64.370316 190.683624,62.836987 191.786636,61.601387 
	C193.387421,59.808205 195.229019,58.229980 197.015045,56.200478 
	C201.814423,60.310135 206.967239,64.433617 210.684509,70.064392 
	C203.218353,68.582016 196.532074,67.254478 189.420685,65.848763 
z"/>
<path fill="#C01D92" opacity="1.000000" stroke="none" 
	d="
M137.844788,91.470901 
	C141.566849,89.399155 145.382401,87.697006 149.583755,85.991684 
	C147.368958,91.606819 144.768356,97.225113 141.921097,103.376312 
	C140.519470,99.316628 139.228867,95.578560 137.844788,91.470901 
z"/>
<path fill="#991FAB" opacity="1.000000" stroke="none" 
	d="
M84.983574,204.869720 
	C84.272537,206.063049 83.420090,206.922897 81.970314,207.753876 
	C75.071999,203.463730 68.718102,199.278305 62.479977,194.926895 
	C43.882545,181.954224 25.330538,168.916443 6.760789,155.904099 
	C8.164178,153.663834 9.567564,151.423584 11.577160,149.128387 
	C13.916143,150.350723 15.629716,151.655029 17.384674,152.901047 
	C33.589035,164.406082 49.746948,175.977905 66.047363,187.345352 
	C70.165344,190.217087 74.745033,192.426788 79.112549,194.940720 
	C81.022423,198.139221 82.932297,201.337738 84.983574,204.869720 
z"/>
<path fill="#A8199E" opacity="1.000000" stroke="none" 
	d="
M28.636948,131.100952 
	C45.056782,142.292557 61.175991,153.610107 77.643044,164.962601 
	C77.645477,168.047409 77.300079,171.097275 76.582138,174.536041 
	C74.034340,173.746353 71.728752,172.756424 69.705048,171.358444 
	C56.787987,162.435135 43.875801,153.502075 31.099838,144.379196 
	C28.103926,142.239914 25.637903,139.358551 22.928097,136.818588 
	C24.730841,134.954697 26.533583,133.090805 28.636948,131.100952 
z"/>
<path fill="#9E1CA7" opacity="1.000000" stroke="none" 
	d="
M79.084343,194.538452 
	C74.745033,192.426788 70.165344,190.217087 66.047363,187.345352 
	C49.746948,175.977905 33.589035,164.406082 17.384674,152.901047 
	C15.629716,151.655029 13.916143,150.350723 11.832047,148.930725 
	C12.763364,147.270142 14.046003,145.752258 15.992600,144.144958 
	C17.419197,144.366180 18.272959,144.546509 18.931063,145.006668 
	C32.976192,154.827286 46.931870,164.777679 61.062687,174.472900 
	C66.144608,177.959610 71.637764,180.846970 76.943237,184.007843 
	C77.647537,187.383957 78.351837,190.760086 79.084343,194.538452 
z"/>
<path fill="#A21BA3" opacity="1.000000" stroke="none" 
	d="
M76.961182,183.557648 
	C71.637764,180.846970 66.144608,177.959610 61.062687,174.472900 
	C46.931870,164.777679 32.976192,154.827286 18.931063,145.006668 
	C18.272959,144.546509 17.419197,144.366180 16.298378,144.016708 
	C18.066719,141.687866 20.193243,139.397842 22.623930,136.963196 
	C25.637903,139.358551 28.103926,142.239914 31.099838,144.379196 
	C43.875801,153.502075 56.787987,162.435135 69.705048,171.358444 
	C71.728752,172.756424 74.034340,173.746353 76.555885,174.969269 
	C76.927826,177.711517 76.953476,180.409485 76.961182,183.557648 
z"/>
<path fill="#9321B0" opacity="1.000000" stroke="none" 
	d="
M6.490002,156.108627 
	C25.330538,168.916443 43.882545,181.954224 62.479977,194.926895 
	C68.718102,199.278305 75.071999,203.463730 81.686874,207.862671 
	C80.526184,209.589005 79.051605,211.177719 77.268967,212.878876 
	C72.006248,210.150360 66.816879,207.648224 62.139011,204.407700 
	C45.131096,192.625626 28.289463,180.603378 11.398544,168.652725 
	C8.966359,166.931915 6.607751,165.107086 4.027040,163.028412 
	C4.632394,160.588684 5.425805,158.450928 6.490002,156.108627 
z"/>
<path fill="#8626BB" opacity="1.000000" stroke="none" 
	d="
M65.151016,220.137604 
	C65.134491,220.328583 64.858803,220.535004 64.318756,220.731781 
	C64.333542,220.532440 64.612694,220.342758 65.151016,220.137604 
z"/>
</svg>